<svg width="216" height="40" viewBox="0 0 216 40" fill="none" xmlns="http://www.w3.org/2000/svg">
<g clip-path="url(#clip0_742_993)">
<path d="M9.90484 20.0001L19.1394 29.2346L13.3968 34.9814L1.11709 22.6976C-0.372362 21.2082 -0.372362 18.792 1.11709 17.2984L13.3968 5.01868L19.1394 10.7613L9.90484 20.0001Z" fill="#EB1C33"/>
<path d="M36.4957 14.9152H25.089L14.2987 4.12495L17.3024 1.11709C18.7919 -0.372362 21.2081 -0.372362 22.7017 1.11709L36.4957 14.9152Z" fill="#EB1C33"/>
<path d="M36.4957 25.089L25.7385 35.8461L22.6976 38.8871C21.2081 40.3765 18.7919 40.3765 17.2983 38.8871L14.2946 35.8834L20.0372 30.1366L25.0848 25.089H36.4957Z" fill="#EB1C33"/>
</g>
<path d="M53.7597 31.32C51.7543 31.32 50.0477 30.9893 48.6397 30.328C47.253 29.6453 46.1757 28.664 45.4077 27.384C44.6397 26.0827 44.213 24.504 44.1277 22.648C44.1063 21.7733 44.0957 20.8347 44.0957 19.832C44.0957 18.8293 44.1063 17.8693 44.1277 16.952C44.213 15.1173 44.6397 13.56 45.4077 12.28C46.197 10.9787 47.2957 9.98667 48.7037 9.304C50.1117 8.62133 51.797 8.28 53.7597 8.28C55.189 8.28 56.4903 8.46133 57.6637 8.824C58.837 9.18667 59.8503 9.70933 60.7037 10.392C61.557 11.0747 62.2183 11.8747 62.6877 12.792C63.157 13.7093 63.413 14.7333 63.4557 15.864C63.4557 16.056 63.381 16.216 63.2317 16.344C63.1037 16.472 62.9437 16.536 62.7517 16.536H59.1037C58.8477 16.536 58.645 16.472 58.4957 16.344C58.3463 16.216 58.229 16.0027 58.1437 15.704C57.8237 14.4453 57.2903 13.5813 56.5437 13.112C55.797 12.6427 54.869 12.408 53.7597 12.408C52.437 12.408 51.3917 12.7707 50.6237 13.496C49.8557 14.2213 49.4397 15.4267 49.3757 17.112C49.3117 18.8613 49.3117 20.6533 49.3757 22.488C49.4397 24.1733 49.8557 25.3787 50.6237 26.104C51.3917 26.8293 52.437 27.192 53.7597 27.192C54.869 27.192 55.797 26.9573 56.5437 26.488C57.3117 25.9973 57.845 25.1333 58.1437 23.896C58.229 23.576 58.3463 23.3627 58.4957 23.256C58.645 23.128 58.8477 23.064 59.1037 23.064H62.7517C62.9437 23.064 63.1037 23.128 63.2317 23.256C63.381 23.384 63.4557 23.544 63.4557 23.736C63.413 24.8667 63.157 25.8907 62.6877 26.808C62.2183 27.7253 61.557 28.5253 60.7037 29.208C59.8503 29.8907 58.837 30.4133 57.6637 30.776C56.4903 31.1387 55.189 31.32 53.7597 31.32ZM74.3152 31.32C72.5445 31.32 71.0618 31.032 69.8672 30.456C68.6725 29.8587 67.7552 29.016 67.1152 27.928C66.4965 26.84 66.1552 25.5707 66.0912 24.12C66.0698 23.6933 66.0592 23.2133 66.0592 22.68C66.0592 22.1253 66.0698 21.6453 66.0912 21.24C66.1552 19.768 66.5178 18.4987 67.1792 17.432C67.8405 16.344 68.7685 15.512 69.9632 14.936C71.1578 14.3387 72.6085 14.04 74.3152 14.04C76.0005 14.04 77.4405 14.3387 78.6352 14.936C79.8298 15.512 80.7578 16.344 81.4192 17.432C82.0805 18.4987 82.4432 19.768 82.5072 21.24C82.5498 21.6453 82.5712 22.1253 82.5712 22.68C82.5712 23.2133 82.5498 23.6933 82.5072 24.12C82.4432 25.5707 82.0912 26.84 81.4512 27.928C80.8325 29.016 79.9258 29.8587 78.7312 30.456C77.5365 31.032 76.0645 31.32 74.3152 31.32ZM74.3152 27.8C75.3605 27.8 76.1498 27.48 76.6832 26.84C77.2165 26.1787 77.5045 25.2187 77.5472 23.96C77.5685 23.64 77.5792 23.2133 77.5792 22.68C77.5792 22.1467 77.5685 21.72 77.5472 21.4C77.5045 20.1627 77.2165 19.2133 76.6832 18.552C76.1498 17.8907 75.3605 17.56 74.3152 17.56C73.2698 17.56 72.4698 17.8907 71.9152 18.552C71.3818 19.2133 71.0938 20.1627 71.0512 21.4C71.0298 21.72 71.0192 22.1467 71.0192 22.68C71.0192 23.2133 71.0298 23.64 71.0512 23.96C71.0938 25.2187 71.3818 26.1787 71.9152 26.84C72.4698 27.48 73.2698 27.8 74.3152 27.8ZM86.6859 31C86.4726 31 86.2912 30.9253 86.1419 30.776C85.9926 30.6267 85.9179 30.4347 85.9179 30.2V15.16C85.9179 14.9253 85.9926 14.7333 86.1419 14.584C86.2912 14.4347 86.4726 14.36 86.6859 14.36H89.8219C90.0566 14.36 90.2486 14.4347 90.3979 14.584C90.5472 14.7333 90.6219 14.9253 90.6219 15.16V16.408C91.1766 15.7253 91.8912 15.16 92.7659 14.712C93.6406 14.264 94.7072 14.04 95.9659 14.04C97.2246 14.04 98.3232 14.328 99.2619 14.904C100.222 15.4587 100.969 16.28 101.502 17.368C102.057 18.4347 102.334 19.736 102.334 21.272V30.2C102.334 30.4347 102.249 30.6267 102.078 30.776C101.929 30.9253 101.747 31 101.534 31H98.1419C97.9072 31 97.7152 30.9253 97.5659 30.776C97.4166 30.6267 97.3419 30.4347 97.3419 30.2V21.464C97.3419 20.3333 97.0646 19.4587 96.5099 18.84C95.9766 18.2 95.1872 17.88 94.1419 17.88C93.1392 17.88 92.3392 18.2 91.7419 18.84C91.1446 19.4587 90.8459 20.3333 90.8459 21.464V30.2C90.8459 30.4347 90.7712 30.6267 90.6219 30.776C90.4726 30.9253 90.2912 31 90.0779 31H86.6859ZM112.728 31.32C111.405 31.32 110.264 31.1707 109.304 30.872C108.365 30.552 107.597 30.168 107 29.72C106.424 29.272 105.987 28.824 105.688 28.376C105.411 27.9067 105.261 27.512 105.24 27.192C105.219 26.9573 105.293 26.7653 105.464 26.616C105.635 26.4667 105.805 26.392 105.976 26.392H109.08C109.144 26.392 109.208 26.4027 109.272 26.424C109.336 26.4453 109.4 26.4987 109.464 26.584C109.741 26.776 110.029 27 110.328 27.256C110.627 27.4907 110.968 27.6933 111.352 27.864C111.757 28.0347 112.259 28.12 112.856 28.12C113.56 28.12 114.157 27.9813 114.648 27.704C115.139 27.4053 115.384 26.9893 115.384 26.456C115.384 26.072 115.267 25.752 115.032 25.496C114.819 25.24 114.403 25.0053 113.784 24.792C113.165 24.5787 112.248 24.344 111.032 24.088C109.88 23.832 108.899 23.4907 108.088 23.064C107.277 22.6373 106.669 22.104 106.264 21.464C105.859 20.8027 105.656 20.0133 105.656 19.096C105.656 18.264 105.912 17.464 106.424 16.696C106.957 15.928 107.736 15.2987 108.76 14.808C109.784 14.296 111.064 14.04 112.6 14.04C113.773 14.04 114.797 14.1893 115.672 14.488C116.568 14.7653 117.315 15.128 117.912 15.576C118.509 16.0027 118.957 16.4507 119.256 16.92C119.576 17.368 119.747 17.7627 119.768 18.104C119.789 18.3173 119.725 18.4987 119.576 18.648C119.427 18.7973 119.256 18.872 119.064 18.872H116.216C116.109 18.872 116.013 18.8613 115.928 18.84C115.843 18.7973 115.768 18.744 115.704 18.68C115.448 18.5093 115.181 18.3173 114.904 18.104C114.648 17.8693 114.339 17.6667 113.976 17.496C113.613 17.3253 113.144 17.24 112.568 17.24C111.864 17.24 111.32 17.4 110.936 17.72C110.573 18.0187 110.392 18.4027 110.392 18.872C110.392 19.1707 110.488 19.448 110.68 19.704C110.872 19.96 111.267 20.1947 111.864 20.408C112.461 20.6213 113.368 20.8453 114.584 21.08C116.035 21.336 117.187 21.72 118.04 22.232C118.893 22.744 119.501 23.3413 119.864 24.024C120.248 24.6853 120.44 25.4 120.44 26.168C120.44 27.1707 120.141 28.0667 119.544 28.856C118.947 29.624 118.072 30.232 116.92 30.68C115.789 31.1067 114.392 31.32 112.728 31.32ZM129.624 31.32C128.386 31.32 127.288 31.0427 126.328 30.488C125.389 29.912 124.653 29.0907 124.12 28.024C123.608 26.936 123.352 25.624 123.352 24.088V15.16C123.352 14.9253 123.426 14.7333 123.576 14.584C123.725 14.4347 123.906 14.36 124.12 14.36H127.512C127.746 14.36 127.938 14.4347 128.088 14.584C128.237 14.7333 128.312 14.9253 128.312 15.16V23.896C128.312 26.2853 129.357 27.48 131.448 27.48C132.45 27.48 133.24 27.1707 133.816 26.552C134.413 25.912 134.712 25.0267 134.712 23.896V15.16C134.712 14.9253 134.786 14.7333 134.936 14.584C135.085 14.4347 135.277 14.36 135.512 14.36H138.904C139.117 14.36 139.298 14.4347 139.448 14.584C139.597 14.7333 139.672 14.9253 139.672 15.16V30.2C139.672 30.4347 139.597 30.6267 139.448 30.776C139.298 30.9253 139.117 31 138.904 31H135.768C135.533 31 135.341 30.9253 135.192 30.776C135.042 30.6267 134.968 30.4347 134.968 30.2V28.952C134.413 29.72 133.698 30.3067 132.824 30.712C131.949 31.1173 130.882 31.32 129.624 31.32ZM144.499 31C144.264 31 144.072 30.9253 143.923 30.776C143.774 30.6267 143.699 30.4347 143.699 30.2V9.08C143.699 8.84533 143.774 8.65333 143.923 8.504C144.072 8.35467 144.264 8.28 144.499 8.28H147.699C147.912 8.28 148.094 8.35467 148.243 8.504C148.392 8.65333 148.467 8.84533 148.467 9.08V30.2C148.467 30.4347 148.392 30.6267 148.243 30.776C148.094 30.9253 147.912 31 147.699 31H144.499ZM160.512 31C159.189 31 158.058 30.7867 157.12 30.36C156.181 29.912 155.466 29.2293 154.976 28.312C154.506 27.3947 154.272 26.2427 154.272 24.856V18.136H151.776C151.541 18.136 151.349 18.0613 151.2 17.912C151.05 17.7627 150.976 17.5707 150.976 17.336V15.16C150.976 14.9253 151.05 14.7333 151.2 14.584C151.349 14.4347 151.541 14.36 151.776 14.36H154.272V9.08C154.272 8.84533 154.346 8.65333 154.496 8.504C154.666 8.35467 154.858 8.28 155.072 8.28H158.208C158.442 8.28 158.634 8.35467 158.784 8.504C158.933 8.65333 159.008 8.84533 159.008 9.08V14.36H163.008C163.221 14.36 163.402 14.4347 163.552 14.584C163.701 14.7333 163.776 14.9253 163.776 15.16V17.336C163.776 17.5707 163.701 17.7627 163.552 17.912C163.402 18.0613 163.221 18.136 163.008 18.136H159.008V24.472C159.008 25.2827 159.146 25.9227 159.424 26.392C159.722 26.84 160.234 27.064 160.96 27.064H163.296C163.509 27.064 163.69 27.1387 163.84 27.288C163.989 27.4373 164.064 27.6187 164.064 27.832V30.2C164.064 30.4347 163.989 30.6267 163.84 30.776C163.69 30.9253 163.509 31 163.296 31H160.512ZM167.623 31C167.41 31 167.229 30.9253 167.079 30.776C166.93 30.6267 166.855 30.4347 166.855 30.2V15.16C166.855 14.9253 166.93 14.7333 167.079 14.584C167.229 14.4347 167.41 14.36 167.623 14.36H170.823C171.058 14.36 171.25 14.4347 171.399 14.584C171.549 14.7333 171.623 14.9253 171.623 15.16V30.2C171.623 30.4347 171.549 30.6267 171.399 30.776C171.25 30.9253 171.058 31 170.823 31H167.623ZM167.527 11.8C167.314 11.8 167.133 11.7253 166.983 11.576C166.834 11.4267 166.759 11.2347 166.759 11V8.44C166.759 8.20533 166.834 8.01333 166.983 7.864C167.133 7.69333 167.314 7.608 167.527 7.608H170.887C171.122 7.608 171.314 7.69333 171.463 7.864C171.634 8.01333 171.719 8.20533 171.719 8.44V11C171.719 11.2347 171.634 11.4267 171.463 11.576C171.314 11.7253 171.122 11.8 170.887 11.8H167.527ZM177.217 31C177.004 31 176.822 30.9253 176.673 30.776C176.524 30.6267 176.449 30.4347 176.449 30.2V15.16C176.449 14.9253 176.524 14.7333 176.673 14.584C176.822 14.4347 177.004 14.36 177.217 14.36H180.353C180.588 14.36 180.78 14.4347 180.929 14.584C181.078 14.7333 181.153 14.9253 181.153 15.16V16.408C181.708 15.7253 182.422 15.16 183.297 14.712C184.172 14.264 185.238 14.04 186.497 14.04C187.756 14.04 188.854 14.328 189.793 14.904C190.753 15.4587 191.5 16.28 192.033 17.368C192.588 18.4347 192.865 19.736 192.865 21.272V30.2C192.865 30.4347 192.78 30.6267 192.609 30.776C192.46 30.9253 192.278 31 192.065 31H188.673C188.438 31 188.246 30.9253 188.097 30.776C187.948 30.6267 187.873 30.4347 187.873 30.2V21.464C187.873 20.3333 187.596 19.4587 187.041 18.84C186.508 18.2 185.718 17.88 184.673 17.88C183.67 17.88 182.87 18.2 182.273 18.84C181.676 19.4587 181.377 20.3333 181.377 21.464V30.2C181.377 30.4347 181.302 30.6267 181.153 30.776C181.004 30.9253 180.822 31 180.609 31H177.217ZM204.507 38.04C202.928 38.04 201.616 37.8267 200.571 37.4C199.526 36.9947 198.694 36.4933 198.075 35.896C197.478 35.32 197.051 34.744 196.795 34.168C196.539 33.592 196.4 33.144 196.379 32.824C196.358 32.5893 196.432 32.3973 196.603 32.248C196.774 32.0987 196.966 32.024 197.179 32.024H200.603C200.795 32.024 200.955 32.0667 201.083 32.152C201.232 32.2587 201.35 32.4293 201.435 32.664C201.542 32.92 201.691 33.1867 201.883 33.464C202.075 33.7627 202.363 34.008 202.747 34.2C203.152 34.392 203.686 34.488 204.347 34.488C205.094 34.488 205.712 34.3813 206.203 34.168C206.694 33.9547 207.056 33.592 207.291 33.08C207.547 32.568 207.675 31.8747 207.675 31V28.856C207.163 29.4107 206.512 29.8693 205.723 30.232C204.955 30.5947 204.006 30.776 202.875 30.776C201.766 30.776 200.784 30.6053 199.931 30.264C199.099 29.9013 198.406 29.4 197.851 28.76C197.296 28.0987 196.87 27.3093 196.571 26.392C196.272 25.4747 196.102 24.44 196.059 23.288C196.038 22.712 196.038 22.1467 196.059 21.592C196.102 20.4827 196.272 19.4693 196.571 18.552C196.87 17.6347 197.296 16.8453 197.851 16.184C198.406 15.5013 199.099 14.9787 199.931 14.616C200.784 14.232 201.766 14.04 202.875 14.04C204.048 14.04 205.051 14.264 205.883 14.712C206.715 15.16 207.398 15.7147 207.931 16.376V15.16C207.931 14.9467 208.006 14.7653 208.155 14.616C208.304 14.4453 208.486 14.36 208.699 14.36H211.835C212.048 14.36 212.23 14.4453 212.379 14.616C212.55 14.7653 212.635 14.9467 212.635 15.16L212.667 30.552C212.667 32.152 212.358 33.5067 211.739 34.616C211.12 35.7253 210.203 36.568 208.987 37.144C207.792 37.7413 206.299 38.04 204.507 38.04ZM204.347 27.032C205.115 27.032 205.734 26.8613 206.203 26.52C206.694 26.1573 207.056 25.7093 207.291 25.176C207.526 24.6213 207.654 24.0453 207.675 23.448C207.696 23.2133 207.707 22.8827 207.707 22.456C207.707 22.008 207.696 21.6667 207.675 21.432C207.654 20.8347 207.526 20.2693 207.291 19.736C207.056 19.1813 206.694 18.7333 206.203 18.392C205.734 18.0507 205.115 17.88 204.347 17.88C203.536 17.88 202.896 18.0613 202.427 18.424C201.958 18.7653 201.616 19.224 201.403 19.8C201.19 20.376 201.062 21.0053 201.019 21.688C200.998 22.2 200.998 22.7013 201.019 23.192C201.062 23.896 201.19 24.536 201.403 25.112C201.616 25.688 201.958 26.1573 202.427 26.52C202.896 26.8613 203.536 27.032 204.347 27.032Z" fill="#1C1C1C"/>
<defs>
<clipPath id="clip0_742_993">
<rect width="36.4957" height="40" fill="white"/>
</clipPath>
</defs>
</svg>
